<svg xmlns="http://www.w3.org/2000/svg" viewBox="0 0 224 224" role="img" aria-labelledby="title desc">
  <title id="title">Keygate</title>
  <desc id="desc">Keygate organic connected-node brand mark</desc>
  <g fill="#000">
    <path d="M47.29 79.92
      C58.01 88.92 58.01 135.08 47.29 144.08
      L80.71 144.08
      C69.99 135.08 69.99 88.92 80.71 79.92Z"/>
    <circle cx="64" cy="60" r="26"/>
    <circle cx="64" cy="164" r="26"/>
    <path d="M166 34
      C180.5 34 192 45.5 192 60
      C192 74.5 180.5 86 166 86
      C155.2 86 149 88.1 142 95
      C136.1 100.9 134 107 134 113
      C134 119.1 136.1 125.2 142 131
      C149 137.9 155.2 140 166 140
      C180.5 140 192 151.5 192 166
      C192 180.5 180.5 192 166 192
      C151.5 192 140 180.5 140 166
      C140 155.2 137.9 149 131 142
      C125.2 136.1 119.1 134 113 134
      C98.5 134 87 122.5 87 108
      C87 93.5 98.5 82 113 82
      C119.1 82 125.2 84.1 131 90
      C137.9 83 140 76.8 140 60
      C140 45.5 151.5 34 166 34Z"/>
  </g>
</svg>

